<?xml version="1.0" encoding="utf-8"?>
<!-- Generator: Adobe Illustrator 24.3.0, SVG Export Plug-In . SVG Version: 6.00 Build 0)  -->
<svg version="1.1" id="Слой_1" xmlns="http://www.w3.org/2000/svg" xmlns:xlink="http://www.w3.org/1999/xlink" x="0px" y="0px"
	 viewBox="0 0 841.9 595.3" style="enable-background:new 0 0 841.9 595.3;" xml:space="preserve">
<style type="text/css">
	.st0{fill:#0D6EFD;}
	.st1{fill:#46433E;}
</style>
<g>
	<path class="st0" d="M430.3,6.2C579.8,4.4,720.4,123.8,720,296.6C719.6,460.4,589.3,585.8,429.3,585
		c-169-0.8-288.9-139-288.4-290.7C141.5,135.2,272.8,4.6,430.3,6.2z M430.9,16.6c-152-2-276.8,124.6-279.4,273.4
		C148.9,439.5,267,573.3,429.6,574.8c153.6,1.5,280.5-125,280.5-278.9C710,138.1,580.5,14.9,430.9,16.6z"/>
	<path class="st1" d="M244.9,267.2c13.5,0.1,26.9,0.1,40.4,0.2c3.7,3.6,7.4,7.3,11.1,10.9c0,7,0.1,13.9,0.1,20.9
		c-3.7,4-7.4,8.1-11.1,12.1c-6.8,0.1-13.7,0.2-20.5,0.4c-0.1,4.7-0.3,9.5-0.4,14.2c-6.5,0.2-13,0.4-19.6,0.6
		C244.9,306.9,244.9,287.3,244.9,267.2z M276.7,279.1c-4.5,0-8.6,0-12.5,0c0,6.9,0,13.5,0,20.1c4.4,0,8.3,0,12.5,0
		C276.7,292.4,276.7,285.9,276.7,279.1z"/>
	<path class="st1" d="M308,266.7c12.8,0,25.5,0,38.3,0.1c4.6,3.7,9.2,7.4,13.9,11c0,6.4,0,12.8,0,19.2c-4,4.4-8,8.9-12,13.3
		c4,5.4,7.5,10.3,11.7,16c-6.3-0.1-12.6-0.3-18.9-0.5c-4.6-5.2-9.1-10.5-13.7-15.7c0,6.1,0,10.8,0,15.8c-6.6,0-12.8,0-19.3,0
		C308,306.4,308,286.8,308,266.7z M327.4,278.9c0,7,0,13.6,0,20.2c4.4,0,8.5,0,12.6,0c0-6.9,0-13.5,0-20.2
		C335.7,278.9,331.7,278.9,327.4,278.9z"/>
	<path class="st1" d="M390.1,326.4c-6.5,0-12.7,0-19.1,0c0-19.7,0-39.2,0-59c6.4,0,12.6,0,19.1,0C390.1,287,390.1,306.6,390.1,326.4
		z"/>
	<path class="st1" d="M401.9,267.2c5.8,0,11.5,0.1,17.3,0.1c6,7,11.9,14.3,17.8,22.1c1.1,1.4,2.1,2.8,3.2,4.2
		c2.6-3.8,5.4-7.7,8.3-11.6c3.7-5,7.5-9.8,11.1-14.3c6.2-0.2,12.4-0.3,18.6-0.5c0,19.9,0,39.5,0,59.3c-6.4,0-12.5,0-19.1,0
		c0-8.8,0-17.5,0-26.2c-0.3-0.1-0.6-0.2-1-0.4c-5.9,8.8-11.8,17.6-18.1,26.9c-6.2-9.2-12.1-18-18.9-28c0,10,0,18.6,0,27.6
		c-6.6,0-12.8,0-19.3,0C401.9,306.9,401.9,287.3,401.9,267.2z"/>
	<path class="st1" d="M509.2,314.8c5.2,0,9.6,0,14.7,0c0-15.9,0-31.5,0-47.4c6.7,0,12.8,0,19.2,0c-0.2,15.6-0.4,31.1-0.6,46.7
		c-3.8,3.9-7.6,7.9-11.4,11.8c-9.5,0-19.1,0.1-28.6,0.1c-4.2-4.2-8.4-8.4-12.6-12.6c-0.1-15.3-0.1-30.6-0.2-45.9
		c6.5,0,12.8,0,19.5,0C509.2,283.2,509.2,298.8,509.2,314.8z"/>
	<path class="st1" d="M545.6,326.3"/>
	<path class="st1" d="M555.2,267.2c5.6,0,11.2,0.1,16.8,0.1c8.4,10,16.8,20.1,25.1,30.1c5.2,0.1,10.3,0.1,15.4,0.2
		c-6.7,10-12.8,19.3-19.4,29.2c-6.3-8.7-12.2-17-19-26.4c0,9.5,0,17.6,0,26c-6.7,0-12.7,0-19.1,0
		C555.2,306.8,555.2,287.3,555.2,267.2z"/>
	<path class="st0" d="M613.7,266.1c5.7,0,11.3-0.1,17-0.1c0,19.4,0,39.3,0,60.1c-5.5,0-10.9,0-17.1,0c-0.6-10.9-1.2-21.6-1.8-33.4
		c-7.2,0-13.3,0-19.4,0C599.5,283.8,606.6,275,613.7,266.1z"/>
</g>
<g id="Слой_2_1_">
</g>
</svg>
