<?xml version="1.0" encoding="utf-8"?>
<!-- Generator: Adobe Illustrator 24.3.0, SVG Export Plug-In . SVG Version: 6.00 Build 0)  -->
<svg version="1.1" id="Слой_1" xmlns="http://www.w3.org/2000/svg" xmlns:xlink="http://www.w3.org/1999/xlink" x="0px" y="0px"
	 viewBox="0 0 841.89 595.28" style="enable-background:new 0 0 841.89 595.28;" xml:space="preserve">
<style type="text/css">
	.st0{fill:#5678BA;}
	.st1{fill:#46433E;}
	.st2{fill:#5B7BBB;}
</style>
<g>
	<path class="st0" d="M430.29,6.21C579.85,4.39,720.41,123.76,720,296.64C719.61,460.36,589.35,585.8,429.27,585
		c-169.03-0.85-288.92-139.05-288.37-290.66C141.47,135.23,272.84,4.55,430.29,6.21z M430.88,16.61
		c-152-2.03-276.83,124.62-279.39,273.44c-2.58,149.43,115.5,283.21,278.12,284.78c153.59,1.48,280.5-125.03,280.47-278.89
		C710.05,138.07,580.55,14.86,430.88,16.61z"/>
	<path class="st1" d="M244.92,267.16c13.47,0.06,26.94,0.11,40.41,0.17c3.72,3.64,7.43,7.28,11.15,10.92
		c0.03,6.95,0.06,13.9,0.09,20.85c-3.72,4.05-7.43,8.1-11.15,12.15c-6.84,0.12-13.69,0.24-20.53,0.36
		c-0.14,4.74-0.27,9.49-0.41,14.23c-6.52,0.22-13.04,0.44-19.56,0.65C244.92,306.86,244.92,287.31,244.92,267.16z M276.71,279.09
		c-4.48,0-8.56,0-12.47,0c0,6.9,0,13.5,0,20.1c4.36,0,8.31,0,12.47,0C276.71,292.43,276.71,285.94,276.71,279.09z"/>
	<path class="st1" d="M307.97,266.7c12.76,0.03,25.53,0.05,38.29,0.08c4.62,3.68,9.23,7.36,13.85,11.03c0,6.39,0,12.78,0,19.17
		c-4.01,4.42-8.03,8.85-12.04,13.27c4,5.44,7.55,10.26,11.74,15.95c-6.29-0.15-12.57-0.3-18.86-0.46
		c-4.57-5.23-9.14-10.47-13.71-15.7c0,6.13,0,10.8,0,15.84c-6.62,0-12.76,0-19.26,0C307.97,306.39,307.97,286.83,307.97,266.7z
		 M327.37,278.93c0,7.04,0,13.64,0,20.22c4.42,0,8.5,0,12.62,0c0-6.91,0-13.51,0-20.22C335.68,278.93,331.68,278.93,327.37,278.93z"
		/>
	<path class="st1" d="M390.09,326.44c-6.49,0-12.68,0-19.06,0c0-19.74,0-39.2,0-58.98c6.38,0,12.56,0,19.06,0
		C390.09,286.98,390.09,306.57,390.09,326.44z"/>
	<path class="st1" d="M401.86,267.16c5.77,0.04,11.54,0.08,17.31,0.12c5.97,6.99,11.91,14.34,17.77,22.06
		c1.07,1.41,2.13,2.82,3.17,4.23c2.62-3.8,5.38-7.66,8.29-11.58c3.74-5.03,7.46-9.8,11.14-14.33c6.22-0.17,12.43-0.34,18.65-0.51
		c0,19.92,0,39.48,0,59.29c-6.37,0-12.53,0-19.12,0c0-8.77,0-17.47,0-26.16c-0.32-0.12-0.63-0.24-0.95-0.36
		c-5.91,8.78-11.82,17.56-18.09,26.86c-6.22-9.24-12.15-18.04-18.87-28.01c0,9.95,0,18.58,0,27.57c-6.65,0-12.8,0-19.31,0
		C401.86,306.86,401.86,287.3,401.86,267.16z"/>
	<path class="st1" d="M509.18,314.76c5.21,0,9.64,0,14.73,0c0-15.86,0-31.54,0-47.41c6.72,0,12.78,0,19.18,0
		c-0.19,15.57-0.37,31.15-0.56,46.72c-3.8,3.93-7.59,7.85-11.39,11.78c-9.54,0.04-19.09,0.08-28.63,0.12
		c-4.22-4.21-8.43-8.41-12.65-12.62c-0.08-15.29-0.15-30.57-0.23-45.86c6.48,0,12.77,0,19.54,0
		C509.18,283.19,509.18,298.75,509.18,314.76z"/>
	<path class="st1" d="M545.63,326.33"/>
	<path class="st1" d="M555.25,267.16c5.62,0.04,11.23,0.08,16.85,0.12c8.38,10.05,16.76,20.1,25.14,30.15
		c5.15,0.08,10.3,0.15,15.44,0.23c-6.68,10.04-12.81,19.26-19.4,29.17c-6.27-8.72-12.18-16.96-18.95-26.38c0,9.48,0,17.65,0,26.03
		c-6.67,0-12.7,0-19.08,0C555.25,306.82,555.25,287.25,555.25,267.16z"/>
	<path class="st2" d="M613.67,266.1c5.66-0.04,11.33-0.07,16.99-0.11c0,19.36,0,39.28,0,60.09c-5.54,0-10.93,0-17.09,0
		c-0.58-10.91-1.15-21.58-1.78-33.4c-7.2,0-13.28,0-19.37,0C599.51,283.81,606.59,274.96,613.67,266.1z"/>
</g>
<g id="Слой_2">
</g>
</svg>
